<?xml version="1.0" standalone="no"?>
<!DOCTYPE svg PUBLIC "-//W3C//DTD SVG 20010904//EN"
 "http://www.w3.org/TR/2001/REC-SVG-20010904/DTD/svg10.dtd">
<svg version="1.0" xmlns="http://www.w3.org/2000/svg"
 width="450.000000pt" height="450.000000pt" viewBox="0 0 450.000000 450.000000"
 preserveAspectRatio="xMidYMid meet">
<metadata>
Created by potrace 1.14, written by Peter Selinger 2001-2017
</metadata>
<g transform="translate(0.000000,450.000000) scale(0.100000,-0.100000)"
fill="#000000" stroke="none">
<path d="M2100 4125 l0 -75 -75 0 -75 0 0 -75 0 -75 -75 0 -75 0 0 -75 0 -75
-75 0 -75 0 0 -300 0 -300 75 0 75 0 0 -75 0 -75 75 0 75 0 0 -75 0 -75 -75 0
-75 0 0 -75 0 -75 -75 0 -75 0 0 -75 0 -75 -150 0 -150 0 0 -75 0 -75 -75 0
-75 0 0 -150 0 -150 -75 0 -75 0 0 -450 0 -450 375 0 375 0 0 -150 0 -150 -75
0 -75 0 0 -450 0 -450 375 0 375 0 0 150 0 150 -75 0 -75 0 0 300 0 300 75 0
75 0 0 -75 0 -75 75 0 75 0 0 -375 0 -375 450 0 450 0 0 150 0 150 -75 0 -75
0 0 75 0 75 -150 0 -150 0 0 525 0 525 -75 0 -75 0 0 150 0 150 75 0 75 0 0
-75 0 -75 300 0 300 0 0 225 0 225 -150 0 -150 0 0 75 0 75 -75 0 -75 0 0 75
0 75 -75 0 -75 0 0 75 0 75 -75 0 -75 0 0 75 0 75 -75 0 -75 0 0 150 0 150 75
0 75 0 0 75 0 75 75 0 75 0 0 300 0 300 -75 0 -75 0 0 75 0 75 -75 0 -75 0 0
75 0 75 -75 0 -75 0 0 75 0 75 -225 0 -225 0 0 -75z m450 -150 l0 -75 75 0 75
0 0 -75 0 -75 75 0 75 0 0 -300 0 -300 -75 0 -75 0 0 -75 0 -75 -75 0 -75 0 0
-75 0 -75 -225 0 -225 0 0 75 0 75 -75 0 -75 0 0 75 0 75 -75 0 -75 0 0 300 0
300 75 0 75 0 0 75 0 75 75 0 75 0 0 75 0 75 225 0 225 0 0 -75z m-750 -2025
l0 -150 -75 0 -75 0 0 -225 0 -225 -75 0 -75 0 0 300 0 300 75 0 75 0 0 75 0
75 75 0 75 0 0 -150z m1050 -75 l0 -75 -75 0 -75 0 0 75 0 75 75 0 75 0 0 -75z"/>
<path d="M2100 3675 l0 -75 75 0 75 0 0 75 0 75 -75 0 -75 0 0 -75z"/>
<path d="M2550 3675 l0 -75 75 0 75 0 0 75 0 75 -75 0 -75 0 0 -75z"/>
<path d="M2100 3225 l0 -75 75 0 75 0 0 -75 0 -75 150 0 150 0 0 75 0 75 75 0
75 0 0 75 0 75 -75 0 -75 0 0 -75 0 -75 -150 0 -150 0 0 75 0 75 -75 0 -75 0
0 -75z"/>
</g>
</svg>
